<svg
  width="650"
  height="615"
  viewBox="-125 0 665 615"
  preserveAspectRatio="xMidYMid meet"
  xmlns="http://www.w3.org/2000/svg"
>

  <!-- OUTER BODY -->
  <path
    d="M248.523 4.95948L229.188 1.4304C221.688 0.492442 214.117 0 206.5 0C198.895 0 191.336 0.480708 183.848 1.41867L164.477 4.95948C61.7148 28.9948 -25.0625 139.639 -54.1016 290.452C-60.9687 326.001 -64.4492 363.015 -64.4492 400.498C-64.4492 604.06 155.816 614.377 199.973 614.377C203.828 614.377 206.184 614.295 206.254 614.272C206.816 614.295 209.184 614.377 213.027 614.377C232.035 614.377 298.762 612.208 359.664 584.492C436.715 549.424 477.449 485.794 477.449 400.498C477.449 362.394 473.863 324.899 466.797 289.08C437.605 139.041 350.945 28.9362 248.523 4.95948Z"
    fill="#000000"
    stroke="black"
    stroke-width="3"
    fill-rule="nonzero"
  />

  <!-- INNER WINDOWS / PANELS -->
  <path
    d="M206.5 17.5868C316.668 17.5868 415.328 127.786 448.164 286.29L403.293 311.509L343.973 279.783V138.185C343.973 133.331 340.035 129.392 335.184 129.392H77.8164C72.9648 129.392 69.0273 133.331 69.0273 138.185V278.446C68.6992 278.587 68.3125 278.54 68.0078 278.716L9.51953 311.521L-35.4453 287.497C-2.78516 128.302 95.9922 17.5868 206.5 17.5868Z"
    fill="#62B6CB"
    stroke="black"
    stroke-width="2"
  />

  <!-- SCREEN -->
  <path
    d="M326.394 146.979V386.793H86.6055V146.979H326.394Z"
    fill="#6E7F91"
    stroke="black"
    stroke-width="2"
  />

  <!-- BOTTOM -->
  <path
    d="M352.387 568.476C294.695 594.727 231.133 596.779 213.027 596.779C209.148 596.779 206.969 596.685 206.125 596.685C206.02 596.685 203.84 596.779 199.973 596.779C158.746 596.779 -46.8711 587.306 -46.8711 400.487C-46.8711 368.268 -44.0703 336.447 -38.832 305.624L5.47655 329.307C6.77734 330.011 8.1953 330.351 9.62499 330.351C11.1016 330.351 12.5898 329.975 13.9258 329.225L69.0391 298.319V395.598C69.0391 400.452 72.9766 404.391 77.8281 404.391H335.207C340.059 404.391 343.996 400.452 343.996 395.598V299.726L399.273 329.295C400.562 329.999 401.992 330.339 403.422 330.339C404.91 330.339 406.387 329.964 407.723 329.213L451.633 304.533C457.012 335.591 459.895 367.775 459.895 400.487C459.871 479.487 423.707 535.999 352.387 568.476Z"
    fill="#1B4965"
    stroke="black"
    stroke-width="2"
  />
</svg>
